<?xml version="1.0" encoding="utf-8"?>
<!-- Generator: Adobe Illustrator 24.1.2, SVG Export Plug-In . SVG Version: 6.00 Build 0)  -->
<svg version="1.1" id="Capa_1" xmlns="http://www.w3.org/2000/svg" xmlns:xlink="http://www.w3.org/1999/xlink" x="0px" y="0px"
	 viewBox="0 0 560 288" style="enable-background:new 0 0 560 288;" xml:space="preserve">
<style type="text/css">
	.st0{fill:url(#SVGID_1_);}
</style>
<g>
	<linearGradient id="SVGID_1_" gradientUnits="userSpaceOnUse" x1="131.53" y1="149.9225" x2="463.3992" y2="149.9225">
		<stop  offset="0" style="stop-color:#0052B0"/>
		<stop  offset="0.3301" style="stop-color:#0253B1"/>
		<stop  offset="0.4488" style="stop-color:#0958B2"/>
		<stop  offset="0.4944" style="stop-color:#0E5BB4"/>
		<stop  offset="0.6134" style="stop-color:#3E79B9"/>
		<stop  offset="0.7325" style="stop-color:#6892BD"/>
		<stop  offset="0.8409" style="stop-color:#85A4C0"/>
		<stop  offset="0.9336" style="stop-color:#98AFC1"/>
		<stop  offset="1" style="stop-color:#9EB3C2"/>
	</linearGradient>
	<path class="st0" d="M151.2,218.4c6.1-4.6,10.6-10.3,14.8-16.5c1.6-2.3,0.8-3.6-1.2-4.8c-1.9-1.2-3.4-1.8-5,0.7
		c-2.5,3.9-5.4,7.6-9.6,9.8c-1.9,1-4,2.1-6,0.7c-1.8-1.3-1.1-3.4-0.8-5.2c1.6-10.2,4.7-20.1,7.5-30c1.1-3.8-0.3-5.5-3.5-6.7
		c-5-1.8-10.3-1.9-15.9-1.6c1-3.8,1.9-7.3,2.9-11.4c3.8,3.5,8,3.8,12.4,2.9c3.6-0.8,6.7-2.6,8.9-5.7c3.3-4.6,3.8-10.4,1.2-14.4
		c-2.5-3.8-7.8-5.5-13.4-4.3c-1.1,0.2-2.1,0.7-3.8,1.2c1.8-6.9,3.5-13.6,5.4-20.2c0.4-1.5,2.2-1.9,3.6-2.3
		c12.3-3.1,24.5-2.5,36.3,2.3c5.9,2.4,6.1,3.3,4.3,9.5c-0.3,1.1-0.5,2.1-0.9,3.6c8-5.3,15.7-10,24.2-13.3c6.6-2.6,13.3-4.1,20.4-3.5
		c11.6,0.9,16.6,5.5,17.9,17.4c2.7-1.7,5.3-3.3,8-4.9c10.8-6.4,21.9-11.8,34.8-12.6c13.9-0.9,21.8,6.1,22.4,19.9
		c0.4,7.9-2,15.2-4.3,22.6c-2.7,8.9-5.7,17.8-7.5,26.9c-0.6,3.1-0.9,6.2,0.1,9.2c1,3.1,3,4.4,6.3,3.6c7.3-1.9,12.4-6.9,16.9-12.4
		c9.2-11.1,15.6-23.9,21.2-37.2c2.3-5.4,4-11,6.2-16.4c0.7-1.8,0.5-3.1-0.6-4.8c-3.8-6.2-5.8-12.9-4.8-20.3
		c1.7-12.5,15.2-22.2,27.3-19.5c7.2,1.6,12.5,7.4,12.2,15.8c-0.2,6.5,2.4,10,7.3,13.5c7.1,5.1,14,10.4,19.8,17.1
		c8.8,10.2,9.5,18.4,2.4,29.9c-4.5,7.3-8.7,14.8-10.8,23.2c-0.7,2.8-1.3,5.6-1.1,8.5c0.3,4.7,2.3,6.7,7.1,7c7,0.3,13.2-2.3,18.9-6.1
		c7.3-5,13.3-11.4,17.7-19c2-3.4,4.1-3.5,7-1.8c0.8,0.4,1.5,0.9,2.2,1.4c4.7,3.4,4.8,4.1,1.6,8.9c-7.7,11.8-15.8,23.1-28.3,30.3
		c-16.3,9.5-34,12.3-52.3,8.3c-16.4-3.6-24.3-16.2-22.4-32.8c1.5-13,6.6-24.7,12.7-36c0.9-1.6,1.9-3.2,2.6-4.9
		c1.9-4.9,0.5-8.7-4-11.5c-1.7-1.1-2.4-1-3.1,1.1c-4.7,14.5-11.3,28.1-19.1,41.2c-10.4,17.5-23.2,32.8-42.9,40.5
		c-11.2,4.4-22.8,5.3-34.5,2.3c-10-2.5-15.3-9.9-15.3-21.1c0-10.3,2.8-20.2,5.4-30c1.8-6.7,3.6-13.5,5.3-20.2c0.5-2.1,1-4.4-0.8-6
		c-1.9-1.7-4-0.5-6,0.1c-0.4,0.1-0.7,0.3-1,0.4c-6.1,1.9-9.4,5.5-10.9,12.4c-4.1,19.7-9.9,39.1-14.1,58.8c-0.7,3.5-3.5,4.3-6.2,5.2
		c-7.3,2.4-15,2.6-22.6,2.5c-4.5,0-8.9-0.5-13.3-1.7c-5.7-1.6-6.9-3.4-5.4-9c5.3-20.6,10.6-41.2,15.8-61.8c0.3-1,0.5-1.9,0.6-2.9
		c0.3-3.6-1.3-5.1-4.9-4.7c-7,0.8-12.2,5.3-14.1,12.1c-5.6,19.9-10.6,39.9-15,60.1c-0.4,1.8-1.2,3.1-3,4
		C160.3,217.6,155.8,218.3,151.2,218.4z"/>
</g>
</svg>
