<svg xmlns="http://www.w3.org/2000/svg" xmlns:xlink="http://www.w3.org/1999/xlink" viewBox="0 0 331.9 139.47"><defs><style>.cls-1{fill:url(#Degradado_sin_nombre);}</style><linearGradient id="Degradado_sin_nombre" y1="57.77" x2="331.9" y2="57.77" gradientTransform="matrix(1, 0, 0, -1, 0, 127.51)" gradientUnits="userSpaceOnUse"><stop offset="0" stop-color="#0052b0"/><stop offset="0.33" stop-color="#0253b1"/><stop offset="0.45" stop-color="#0958b2"/><stop offset="0.49" stop-color="#0e5bb4"/><stop offset="0.61" stop-color="#3e79b9"/><stop offset="0.73" stop-color="#6892bd"/><stop offset="0.84" stop-color="#85a4c0"/><stop offset="0.93" stop-color="#98afc1"/><stop offset="1" stop-color="#9eb3c2"/></linearGradient></defs><g id="Capa_2" data-name="Capa 2"><g id="Capa_1-2" data-name="Capa 1"><path class="cls-1" d="M19.7,138.15c6.1-4.6,10.6-10.3,14.8-16.5,1.6-2.3.8-3.6-1.2-4.8s-3.4-1.8-5,.7c-2.5,3.9-5.4,7.6-9.6,9.8-1.9,1-4,2.1-6,.7-1.8-1.3-1.1-3.4-.8-5.2,1.6-10.2,4.7-20.1,7.5-30,1.1-3.8-.3-5.5-3.5-6.7-5-1.8-10.3-1.9-15.9-1.6,1-3.8,1.9-7.3,2.9-11.4,3.8,3.5,8,3.8,12.4,2.9a14.34,14.34,0,0,0,8.9-5.7C27.5,65.75,28,60,25.4,56c-2.5-3.8-7.8-5.5-13.4-4.3-1.1.2-2.1.7-3.8,1.2,1.8-6.9,3.5-13.6,5.4-20.2.4-1.5,2.2-1.9,3.6-2.3a57.19,57.19,0,0,1,36.3,2.3c5.9,2.4,6.1,3.3,4.3,9.5-.3,1.1-.5,2.1-.9,3.6,8-5.3,15.7-10,24.2-13.3,6.6-2.6,13.3-4.1,20.4-3.5,11.6.9,16.6,5.5,17.9,17.4,2.7-1.7,5.3-3.3,8-4.9,10.8-6.4,21.9-11.8,34.8-12.6,13.9-.9,21.8,6.1,22.4,19.9.4,7.9-2,15.2-4.3,22.6-2.7,8.9-5.7,17.8-7.5,26.9-.6,3.1-.9,6.2.1,9.2s3,4.4,6.3,3.6c7.3-1.9,12.4-6.9,16.9-12.4,9.2-11.1,15.6-23.9,21.2-37.2,2.3-5.4,4-11,6.2-16.4a4.67,4.67,0,0,0-.6-4.8c-3.8-6.2-5.8-12.9-4.8-20.3,1.7-12.5,15.2-22.2,27.3-19.5a15,15,0,0,1,12.2,15.8c-.2,6.5,2.4,10,7.3,13.5,7.1,5.1,14,10.4,19.8,17.1,8.8,10.2,9.5,18.4,2.4,29.9-4.5,7.3-8.7,14.8-10.8,23.2a27.22,27.22,0,0,0-1.1,8.5c.3,4.7,2.3,6.7,7.1,7,7,.3,13.2-2.3,18.9-6.1a58.45,58.45,0,0,0,17.7-19c2-3.4,4.1-3.5,7-1.8a16.44,16.44,0,0,1,2.2,1.4c4.7,3.4,4.8,4.1,1.6,8.9-7.7,11.8-15.8,23.1-28.3,30.3a71.05,71.05,0,0,1-52.3,8.3c-16.4-3.6-24.3-16.2-22.4-32.8,1.5-13,6.6-24.7,12.7-36a45.92,45.92,0,0,0,2.6-4.9c1.9-4.9.5-8.7-4-11.5-1.7-1.1-2.4-1-3.1,1.1a202.74,202.74,0,0,1-19.1,41.2c-10.4,17.5-23.2,32.8-42.9,40.5a55.12,55.12,0,0,1-34.5,2.3c-10-2.5-15.3-9.9-15.3-21.1,0-10.3,2.8-20.2,5.4-30,1.8-6.7,3.6-13.5,5.3-20.2.5-2.1,1-4.4-.8-6s-4-.5-6,.1a10.37,10.37,0,0,0-1,.4c-6.1,1.9-9.4,5.5-10.9,12.4-4.1,19.7-9.9,39.1-14.1,58.8-.7,3.5-3.5,4.3-6.2,5.2-7.3,2.4-15,2.6-22.6,2.5a50,50,0,0,1-13.3-1.7c-5.7-1.6-6.9-3.4-5.4-9Q61.45,97.85,69.3,67a15,15,0,0,0,.6-2.9c.3-3.6-1.3-5.1-4.9-4.7a16.09,16.09,0,0,0-14.1,12.1q-8.4,29.85-15,60.1a5.33,5.33,0,0,1-3,4A34.52,34.52,0,0,1,19.7,138.15Z"/></g></g></svg>